<svg width="22" height="22" viewBox="0 0 22 22" fill="none" xmlns="http://www.w3.org/2000/svg">
<path d="M12.3496 2.15383C11.7392 1.11539 10.265 1.11539 9.65467 2.15383L0.22636 18.1955C-0.40206 19.2647 0.352383 20.625 1.57381 20.625H20.4304C21.6519 20.625 22.4063 19.2647 21.7779 18.1955L12.3496 2.15383ZM11 6.875C11.7362 6.875 12.3114 7.51064 12.2382 8.24318L11.7559 13.0659C11.7171 13.4543 11.3903 13.75 11 13.75C10.6097 13.75 10.2829 13.4543 10.2441 13.0659L9.76182 8.24318C9.68856 7.51064 10.2638 6.875 11 6.875ZM11.0021 15.125C11.7615 15.125 12.3771 15.7406 12.3771 16.5C12.3771 17.2594 11.7615 17.875 11.0021 17.875C10.2427 17.875 9.62712 17.2594 9.62712 16.5C9.62712 15.7406 10.2427 15.125 11.0021 15.125Z" fill="white"/>
</svg>
