<svg width="196" height="54" viewBox="0 0 196 54" fill="none" xmlns="http://www.w3.org/2000/svg">
<path d="M26.3125 48.6538C24.8672 48.6538 23.5651 48.2957 22.4062 47.5796C21.2344 46.8634 20.2904 45.8999 19.5742 44.689C18.8711 43.478 18.5195 42.1239 18.5195 40.6265V27.9507C18.5195 26.4924 18.8776 25.1642 19.5938 23.9663C20.2969 22.7554 21.2409 21.7918 22.4258 21.0757C23.6107 20.3465 24.9062 19.9819 26.3125 19.9819C27.7839 19.9819 29.112 20.3335 30.2969 21.0366C31.4818 21.7528 32.4193 22.7098 33.1094 23.9077C33.8125 25.1056 34.1641 26.4533 34.1641 27.9507V29.7866C34.1641 29.8908 34.099 29.9429 33.9688 29.9429H29.4766C29.3724 29.9429 29.3203 29.8908 29.3203 29.7866V28.2632C29.3203 27.2476 29.0339 26.4077 28.4609 25.7437C27.888 25.0796 27.1719 24.7476 26.3125 24.7476C25.5443 24.7476 24.8607 25.0666 24.2617 25.7046C23.6628 26.3426 23.3633 27.0913 23.3633 27.9507V40.6265C23.3633 41.4989 23.6562 42.2541 24.2422 42.8921C24.8281 43.5171 25.5182 43.8296 26.3125 43.8296C27.1719 43.8296 27.888 43.5236 28.4609 42.9116C29.0339 42.2866 29.3203 41.5249 29.3203 40.6265V38.6538H26.5273C26.3841 38.6538 26.3125 38.5887 26.3125 38.4585V33.9858C26.3125 33.8556 26.3841 33.7905 26.5273 33.7905H34.0078C34.112 33.7905 34.1641 33.8556 34.1641 33.9858V40.6265C34.1641 42.1239 33.8125 43.478 33.1094 44.689C32.3932 45.8999 31.4492 46.8634 30.2773 47.5796C29.1055 48.2957 27.7839 48.6538 26.3125 48.6538ZM41.6836 48.2632H37.1523C37.0482 48.2632 36.9961 48.1981 36.9961 48.0679L37.0742 20.5874C37.0742 20.4832 37.1263 20.4312 37.2305 20.4312H45.3164C46.7617 20.4312 48.0898 20.7827 49.3008 21.4858C50.5117 22.189 51.4753 23.133 52.1914 24.3179C52.9206 25.5028 53.2852 26.8439 53.2852 28.3413C53.2852 29.3179 53.1354 30.2033 52.8359 30.9976C52.5365 31.7918 52.1849 32.4624 51.7812 33.0093C51.3906 33.5562 51.0326 33.9598 50.707 34.2202C52.1523 35.8218 52.875 37.7033 52.875 39.8647L52.9141 48.0679C52.9141 48.1981 52.849 48.2632 52.7188 48.2632H48.1875C48.0833 48.2632 48.0312 48.2241 48.0312 48.146V39.8647C48.0312 38.9012 47.6927 38.0679 47.0156 37.3647C46.3385 36.6616 45.5052 36.3101 44.5156 36.3101H41.8789L41.8398 48.0679C41.8398 48.1981 41.7878 48.2632 41.6836 48.2632ZM45.3164 25.2163H41.8789V31.5054H45.3164C46.1367 31.5054 46.8659 31.1994 47.5039 30.5874C48.1549 29.9754 48.4805 29.2267 48.4805 28.3413C48.4805 27.495 48.168 26.7658 47.543 26.1538C46.918 25.5288 46.1758 25.2163 45.3164 25.2163ZM69.3789 48.2632H56.4492C56.3451 48.2632 56.293 48.1981 56.293 48.0679L56.332 20.5874C56.332 20.4832 56.3841 20.4312 56.4883 20.4312H69.3398C69.444 20.4312 69.4961 20.4963 69.4961 20.6265V25.0991C69.4961 25.2033 69.444 25.2554 69.3398 25.2554H61.1367V31.5054H69.3398C69.444 31.5054 69.4961 31.5575 69.4961 31.6616L69.5352 36.1929C69.5352 36.297 69.4831 36.3491 69.3789 36.3491H61.1367V43.3413H69.3789C69.4831 43.3413 69.5352 43.4064 69.5352 43.5366V48.1069C69.5352 48.2111 69.4831 48.2632 69.3789 48.2632ZM86.1758 48.2632H73.2461C73.1419 48.2632 73.0898 48.1981 73.0898 48.0679L73.1289 20.5874C73.1289 20.4832 73.181 20.4312 73.2852 20.4312H86.1367C86.2409 20.4312 86.293 20.4963 86.293 20.6265V25.0991C86.293 25.2033 86.2409 25.2554 86.1367 25.2554H77.9336V31.5054H86.1367C86.2409 31.5054 86.293 31.5575 86.293 31.6616L86.332 36.1929C86.332 36.297 86.2799 36.3491 86.1758 36.3491H77.9336V43.3413H86.1758C86.2799 43.3413 86.332 43.4064 86.332 43.5366V48.1069C86.332 48.2111 86.2799 48.2632 86.1758 48.2632ZM94.2422 48.2632H90.2383C90.0299 48.2632 89.9258 48.172 89.9258 47.9897L89.8867 20.7437C89.8867 20.5353 89.9909 20.4312 90.1992 20.4312H93.8125L100.57 36.1929L100.375 20.7437C100.375 20.5353 100.492 20.4312 100.727 20.4312H104.691C104.848 20.4312 104.926 20.5353 104.926 20.7437L104.965 48.0288C104.965 48.1851 104.9 48.2632 104.77 48.2632H101.254L94.3203 33.5366L94.6133 47.9507C94.6133 48.159 94.4896 48.2632 94.2422 48.2632ZM116.977 48.2632H112.465C112.348 48.2632 112.289 48.1981 112.289 48.0679V25.2554H107.094C106.964 25.2554 106.898 25.1903 106.898 25.0601L106.938 20.5874C106.938 20.4832 106.99 20.4312 107.094 20.4312H122.289C122.432 20.4312 122.504 20.4832 122.504 20.5874V25.0601C122.504 25.1903 122.452 25.2554 122.348 25.2554H117.094L117.133 48.0679C117.133 48.1981 117.081 48.2632 116.977 48.2632ZM129.145 48.2632H124.613C124.509 48.2632 124.457 48.1981 124.457 48.0679L124.535 20.5874C124.535 20.4832 124.587 20.4312 124.691 20.4312H132.777C134.223 20.4312 135.551 20.7827 136.762 21.4858C137.973 22.189 138.936 23.133 139.652 24.3179C140.382 25.5028 140.746 26.8439 140.746 28.3413C140.746 29.3179 140.596 30.2033 140.297 30.9976C139.997 31.7918 139.646 32.4624 139.242 33.0093C138.852 33.5562 138.493 33.9598 138.168 34.2202C139.613 35.8218 140.336 37.7033 140.336 39.8647L140.375 48.0679C140.375 48.1981 140.31 48.2632 140.18 48.2632H135.648C135.544 48.2632 135.492 48.2241 135.492 48.146V39.8647C135.492 38.9012 135.154 38.0679 134.477 37.3647C133.799 36.6616 132.966 36.3101 131.977 36.3101H129.34L129.301 48.0679C129.301 48.1981 129.249 48.2632 129.145 48.2632ZM132.777 25.2163H129.34V31.5054H132.777C133.598 31.5054 134.327 31.1994 134.965 30.5874C135.616 29.9754 135.941 29.2267 135.941 28.3413C135.941 27.495 135.629 26.7658 135.004 26.1538C134.379 25.5288 133.637 25.2163 132.777 25.2163ZM141.586 48.0679L146.547 20.5874C146.573 20.4832 146.638 20.4312 146.742 20.4312H152.543C152.647 20.4312 152.712 20.4832 152.738 20.5874L157.504 48.0679C157.517 48.1981 157.465 48.2632 157.348 48.2632H152.914C152.784 48.2632 152.712 48.1981 152.699 48.0679L152.27 45.1382H146.82L146.391 48.0679C146.378 48.1981 146.312 48.2632 146.195 48.2632H141.742C141.638 48.2632 141.586 48.1981 141.586 48.0679ZM149.418 29.6304L147.621 40.8608H151.469L149.828 29.6304L149.594 28.146L149.418 29.6304ZM167.367 48.6538C165.922 48.6538 164.6 48.2892 163.402 47.5601C162.217 46.8309 161.273 45.8543 160.57 44.6304C159.88 43.3934 159.535 42.0197 159.535 40.5093L159.574 28.0288C159.574 26.5444 159.913 25.2033 160.59 24.0054C161.267 22.7944 162.198 21.8244 163.383 21.0952C164.581 20.353 165.909 19.9819 167.367 19.9819C168.852 19.9819 170.173 20.34 171.332 21.0562C172.504 21.7723 173.435 22.7424 174.125 23.9663C174.828 25.1772 175.18 26.5314 175.18 28.0288V29.8647C175.18 29.9689 175.128 30.021 175.023 30.021H170.531C170.427 30.021 170.375 29.9689 170.375 29.8647V28.0288C170.375 27.1434 170.089 26.3817 169.516 25.7437C168.943 25.1056 168.227 24.7866 167.367 24.7866C166.417 24.7866 165.688 25.1121 165.18 25.7632C164.672 26.4142 164.418 27.1694 164.418 28.0288V40.5093C164.418 41.4858 164.704 42.2866 165.277 42.9116C165.85 43.5236 166.547 43.8296 167.367 43.8296C168.227 43.8296 168.943 43.491 169.516 42.814C170.089 42.1239 170.375 41.3556 170.375 40.5093V38.6538C170.375 38.5496 170.427 38.4976 170.531 38.4976H175.062C175.167 38.4976 175.219 38.5496 175.219 38.6538V40.5093C175.219 42.0067 174.867 43.3739 174.164 44.6108C173.448 45.8348 172.504 46.8179 171.332 47.5601C170.16 48.2892 168.839 48.6538 167.367 48.6538ZM182.816 48.2632H178.285C178.181 48.2632 178.129 48.1981 178.129 48.0679L178.207 20.6265C178.207 20.4963 178.259 20.4312 178.363 20.4312H182.855C182.96 20.4312 183.012 20.4963 183.012 20.6265V30.0991L189.281 20.5874C189.385 20.4832 189.483 20.4312 189.574 20.4312H194.164C194.281 20.4312 194.307 20.4832 194.242 20.5874L187.328 31.6226L195.082 48.1069C195.147 48.2111 195.082 48.2632 194.887 48.2632H190.004C189.874 48.2632 189.796 48.2111 189.77 48.1069L184.359 36.3491L182.973 38.5366V48.0679C182.973 48.1981 182.921 48.2632 182.816 48.2632Z" fill="#141619"/>
<path d="M16.3516 30.2632V25.2632L18.8516 20.2632H11.3516L13.8516 25.2632V30.2632" stroke="#141619"/>
<path fill-rule="evenodd" clip-rule="evenodd" d="M3.5311 11.247C5.43051 5.03609 11.5801 1.69649 17.1337 3.52091C22.7096 5.35267 25.8936 11.6078 24.0015 17.7949C23.9585 17.9357 23.8211 18.5098 23.7169 18.9469C23.6764 19.1166 23.6368 19.2836 23.6024 19.4288C24.1206 19.3338 24.9863 19.185 25.336 19.1834L26.7423 19.1769C26.7548 19.1251 26.7668 19.0754 26.7782 19.0288C26.8108 18.8949 26.8322 18.8099 26.8432 18.7661L26.8434 18.7653L26.8434 18.765C26.8505 18.7369 26.8532 18.7263 26.8517 18.7312C29.1874 11.0936 25.2909 3.04358 18.011 0.652064C10.7088 -1.74681 3.00936 2.69698 0.680959 10.3107C-1.4112 17.1518 1.4583 24.4765 7.35798 27.6433L7.32072 31.336L7.25469 37.879L7.24973 38.3709L7.53234 38.7761L9.54487 41.6613L10.0043 42.32L10.7946 42.3139L16.2857 42.2719L16.297 42.2719L17.733 42.2719L17.6827 39.2541H16.2355L16.2355 39.2541L16.2242 39.2542L11.5121 39.2902L10.2416 37.4688L10.2879 32.8857H17.733L17.6827 29.8679H10.3183L10.3498 26.7533L10.36 25.738L9.43406 25.3304C4.46214 23.1418 1.74038 17.1025 3.5311 11.247ZM26.5033 20.1777L24.8187 20.2307L24.9442 20.263L26.3949 20.6361L26.395 20.636L26.395 20.6358L26.3952 20.6348L26.3961 20.631L26.3997 20.6157L26.4135 20.5575L26.463 20.3479C26.4753 20.296 26.4888 20.2388 26.5033 20.1777Z" fill="#141619"/>
</svg>
