<svg width="196" height="54" viewBox="0 0 196 54" fill="none" xmlns="http://www.w3.org/2000/svg">
<path d="M26.9609 49.3906C25.5156 49.3906 24.2135 49.0326 23.0547 48.3164C21.8828 47.6003 20.9388 46.6367 20.2227 45.4258C19.5195 44.2148 19.168 42.8607 19.168 41.3633V28.6875C19.168 27.2292 19.526 25.901 20.2422 24.7031C20.9453 23.4922 21.8893 22.5286 23.0742 21.8125C24.2591 21.0833 25.5547 20.7188 26.9609 20.7188C28.4323 20.7188 29.7604 21.0703 30.9453 21.7734C32.1302 22.4896 33.0677 23.4466 33.7578 24.6445C34.4609 25.8424 34.8125 27.1901 34.8125 28.6875V30.5234C34.8125 30.6276 34.7474 30.6797 34.6172 30.6797H30.125C30.0208 30.6797 29.9688 30.6276 29.9688 30.5234V29C29.9688 27.9844 29.6823 27.1445 29.1094 26.4805C28.5365 25.8164 27.8203 25.4844 26.9609 25.4844C26.1927 25.4844 25.5091 25.8034 24.9102 26.4414C24.3112 27.0794 24.0117 27.8281 24.0117 28.6875V41.3633C24.0117 42.2357 24.3047 42.9909 24.8906 43.6289C25.4766 44.2539 26.1667 44.5664 26.9609 44.5664C27.8203 44.5664 28.5365 44.2604 29.1094 43.6484C29.6823 43.0234 29.9688 42.2617 29.9688 41.3633V39.3906H27.1758C27.0326 39.3906 26.9609 39.3255 26.9609 39.1953V34.7227C26.9609 34.5924 27.0326 34.5273 27.1758 34.5273H34.6562C34.7604 34.5273 34.8125 34.5924 34.8125 34.7227V41.3633C34.8125 42.8607 34.4609 44.2148 33.7578 45.4258C33.0417 46.6367 32.0977 47.6003 30.9258 48.3164C29.7539 49.0326 28.4323 49.3906 26.9609 49.3906ZM42.332 49H37.8008C37.6966 49 37.6445 48.9349 37.6445 48.8047L37.7227 21.3242C37.7227 21.2201 37.7747 21.168 37.8789 21.168H45.9648C47.4102 21.168 48.7383 21.5195 49.9492 22.2227C51.1602 22.9258 52.1237 23.8698 52.8398 25.0547C53.569 26.2396 53.9336 27.5807 53.9336 29.0781C53.9336 30.0547 53.7839 30.9401 53.4844 31.7344C53.1849 32.5286 52.8333 33.1992 52.4297 33.7461C52.0391 34.293 51.681 34.6966 51.3555 34.957C52.8008 36.5586 53.5234 38.4401 53.5234 40.6016L53.5625 48.8047C53.5625 48.9349 53.4974 49 53.3672 49H48.8359C48.7318 49 48.6797 48.9609 48.6797 48.8828V40.6016C48.6797 39.638 48.3411 38.8047 47.6641 38.1016C46.987 37.3984 46.1536 37.0469 45.1641 37.0469H42.5273L42.4883 48.8047C42.4883 48.9349 42.4362 49 42.332 49ZM45.9648 25.9531H42.5273V32.2422H45.9648C46.7852 32.2422 47.5143 31.9362 48.1523 31.3242C48.8034 30.7122 49.1289 29.9635 49.1289 29.0781C49.1289 28.2318 48.8164 27.5026 48.1914 26.8906C47.5664 26.2656 46.8242 25.9531 45.9648 25.9531ZM70.0273 49H57.0977C56.9935 49 56.9414 48.9349 56.9414 48.8047L56.9805 21.3242C56.9805 21.2201 57.0326 21.168 57.1367 21.168H69.9883C70.0924 21.168 70.1445 21.2331 70.1445 21.3633V25.8359C70.1445 25.9401 70.0924 25.9922 69.9883 25.9922H61.7852V32.2422H69.9883C70.0924 32.2422 70.1445 32.2943 70.1445 32.3984L70.1836 36.9297C70.1836 37.0339 70.1315 37.0859 70.0273 37.0859H61.7852V44.0781H70.0273C70.1315 44.0781 70.1836 44.1432 70.1836 44.2734V48.8438C70.1836 48.9479 70.1315 49 70.0273 49ZM86.8242 49H73.8945C73.7904 49 73.7383 48.9349 73.7383 48.8047L73.7773 21.3242C73.7773 21.2201 73.8294 21.168 73.9336 21.168H86.7852C86.8893 21.168 86.9414 21.2331 86.9414 21.3633V25.8359C86.9414 25.9401 86.8893 25.9922 86.7852 25.9922H78.582V32.2422H86.7852C86.8893 32.2422 86.9414 32.2943 86.9414 32.3984L86.9805 36.9297C86.9805 37.0339 86.9284 37.0859 86.8242 37.0859H78.582V44.0781H86.8242C86.9284 44.0781 86.9805 44.1432 86.9805 44.2734V48.8438C86.9805 48.9479 86.9284 49 86.8242 49ZM94.8906 49H90.8867C90.6784 49 90.5742 48.9089 90.5742 48.7266L90.5352 21.4805C90.5352 21.2721 90.6393 21.168 90.8477 21.168H94.4609L101.219 36.9297L101.023 21.4805C101.023 21.2721 101.141 21.168 101.375 21.168H105.34C105.496 21.168 105.574 21.2721 105.574 21.4805L105.613 48.7656C105.613 48.9219 105.548 49 105.418 49H101.902L94.9688 34.2734L95.2617 48.6875C95.2617 48.8958 95.138 49 94.8906 49ZM117.625 49H113.113C112.996 49 112.938 48.9349 112.938 48.8047V25.9922H107.742C107.612 25.9922 107.547 25.9271 107.547 25.7969L107.586 21.3242C107.586 21.2201 107.638 21.168 107.742 21.168H122.938C123.081 21.168 123.152 21.2201 123.152 21.3242V25.7969C123.152 25.9271 123.1 25.9922 122.996 25.9922H117.742L117.781 48.8047C117.781 48.9349 117.729 49 117.625 49ZM129.793 49H125.262C125.158 49 125.105 48.9349 125.105 48.8047L125.184 21.3242C125.184 21.2201 125.236 21.168 125.34 21.168H133.426C134.871 21.168 136.199 21.5195 137.41 22.2227C138.621 22.9258 139.585 23.8698 140.301 25.0547C141.03 26.2396 141.395 27.5807 141.395 29.0781C141.395 30.0547 141.245 30.9401 140.945 31.7344C140.646 32.5286 140.294 33.1992 139.891 33.7461C139.5 34.293 139.142 34.6966 138.816 34.957C140.262 36.5586 140.984 38.4401 140.984 40.6016L141.023 48.8047C141.023 48.9349 140.958 49 140.828 49H136.297C136.193 49 136.141 48.9609 136.141 48.8828V40.6016C136.141 39.638 135.802 38.8047 135.125 38.1016C134.448 37.3984 133.615 37.0469 132.625 37.0469H129.988L129.949 48.8047C129.949 48.9349 129.897 49 129.793 49ZM133.426 25.9531H129.988V32.2422H133.426C134.246 32.2422 134.975 31.9362 135.613 31.3242C136.264 30.7122 136.59 29.9635 136.59 29.0781C136.59 28.2318 136.277 27.5026 135.652 26.8906C135.027 26.2656 134.285 25.9531 133.426 25.9531ZM142.234 48.8047L147.195 21.3242C147.221 21.2201 147.286 21.168 147.391 21.168H153.191C153.296 21.168 153.361 21.2201 153.387 21.3242L158.152 48.8047C158.165 48.9349 158.113 49 157.996 49H153.562C153.432 49 153.361 48.9349 153.348 48.8047L152.918 45.875H147.469L147.039 48.8047C147.026 48.9349 146.961 49 146.844 49H142.391C142.286 49 142.234 48.9349 142.234 48.8047ZM150.066 30.3672L148.27 41.5977H152.117L150.477 30.3672L150.242 28.8828L150.066 30.3672ZM168.016 49.3906C166.57 49.3906 165.249 49.026 164.051 48.2969C162.866 47.5677 161.922 46.5911 161.219 45.3672C160.529 44.1302 160.184 42.7565 160.184 41.2461L160.223 28.7656C160.223 27.2812 160.561 25.9401 161.238 24.7422C161.915 23.5312 162.846 22.5612 164.031 21.832C165.229 21.0898 166.557 20.7188 168.016 20.7188C169.5 20.7188 170.822 21.0768 171.98 21.793C173.152 22.5091 174.083 23.4792 174.773 24.7031C175.477 25.9141 175.828 27.2682 175.828 28.7656V30.6016C175.828 30.7057 175.776 30.7578 175.672 30.7578H171.18C171.076 30.7578 171.023 30.7057 171.023 30.6016V28.7656C171.023 27.8802 170.737 27.1185 170.164 26.4805C169.591 25.8424 168.875 25.5234 168.016 25.5234C167.065 25.5234 166.336 25.849 165.828 26.5C165.32 27.151 165.066 27.9062 165.066 28.7656V41.2461C165.066 42.2227 165.353 43.0234 165.926 43.6484C166.499 44.2604 167.195 44.5664 168.016 44.5664C168.875 44.5664 169.591 44.2279 170.164 43.5508C170.737 42.8607 171.023 42.0924 171.023 41.2461V39.3906C171.023 39.2865 171.076 39.2344 171.18 39.2344H175.711C175.815 39.2344 175.867 39.2865 175.867 39.3906V41.2461C175.867 42.7435 175.516 44.1107 174.812 45.3477C174.096 46.5716 173.152 47.5547 171.98 48.2969C170.809 49.026 169.487 49.3906 168.016 49.3906ZM183.465 49H178.934C178.829 49 178.777 48.9349 178.777 48.8047L178.855 21.3633C178.855 21.2331 178.908 21.168 179.012 21.168H183.504C183.608 21.168 183.66 21.2331 183.66 21.3633V30.8359L189.93 21.3242C190.034 21.2201 190.132 21.168 190.223 21.168H194.812C194.93 21.168 194.956 21.2201 194.891 21.3242L187.977 32.3594L195.73 48.8438C195.796 48.9479 195.73 49 195.535 49H190.652C190.522 49 190.444 48.9479 190.418 48.8438L185.008 37.0859L183.621 39.2734V48.8047C183.621 48.9349 183.569 49 183.465 49Z" fill="white"/>
<path d="M17 31V26L19.5 21H12L14.5 26V31" stroke="white"/>
<path fill-rule="evenodd" clip-rule="evenodd" d="M4.17954 11.9838C6.07894 5.77291 12.2285 2.43331 17.7821 4.25772C23.358 6.08949 26.5421 12.3447 24.65 18.5317C24.6069 18.6725 24.4696 19.2466 24.3653 19.6837C24.3249 19.8534 24.2852 20.0205 24.2508 20.1656C24.7691 20.0706 25.6348 19.9218 25.9845 19.9202L27.3907 19.9137C27.4032 19.8619 27.4153 19.8123 27.4266 19.7656C27.4593 19.6318 27.4806 19.5467 27.4916 19.503L27.4918 19.5021L27.4919 19.5019C27.4989 19.4737 27.5016 19.4631 27.5001 19.468C29.8358 11.8304 25.9393 3.7804 18.6594 1.38888C11.3572 -1.00999 3.6578 3.4338 1.3294 11.0475C-0.76276 17.8887 2.10673 25.2134 8.00642 28.3801L7.96915 32.0728L7.90313 38.6159L7.89817 39.1077L8.18078 39.5129L10.1933 42.3981L10.6528 43.0568L11.443 43.0507L16.9342 43.0087L16.9454 43.0087L18.3814 43.0087L18.3312 39.991H16.8839L16.8839 39.9909L16.8726 39.991L12.1605 40.027L10.8901 38.2056L10.9363 33.6225H18.3814L18.3312 30.6048H10.9668L10.9982 27.4901L11.0084 26.4748L10.0825 26.0672C5.11058 23.8786 2.38881 17.8393 4.17954 11.9838ZM27.1517 20.9145L25.4671 20.9676L25.5926 20.9998L27.0434 21.3729L27.0434 21.3728L27.0434 21.3726L27.0437 21.3717L27.0446 21.3678L27.0482 21.3525L27.0619 21.2943L27.1114 21.0848C27.1237 21.0328 27.1372 20.9756 27.1517 20.9145Z" fill="white"/>
</svg>
