<svg width="19" height="19" viewBox="0 0 19 19" fill="none" xmlns="http://www.w3.org/2000/svg">
<path d="M0 13.5625C0 13.2864 0.223858 13.0625 0.5 13.0625H3.0625C3.33864 13.0625 3.5625 13.2864 3.5625 13.5625V16.125C3.5625 16.4011 3.33864 16.625 3.0625 16.625H0.5C0.223858 16.625 0 16.4011 0 16.125V13.5625Z" fill="white"/>
<path d="M4.75 10C4.75 9.72386 4.97386 9.5 5.25 9.5H7.8125C8.08864 9.5 8.3125 9.72386 8.3125 10V16.125C8.3125 16.4011 8.08864 16.625 7.8125 16.625H5.25C4.97386 16.625 4.75 16.4011 4.75 16.125V10Z" fill="white"/>
<path d="M9.5 6.4375C9.5 6.16136 9.72386 5.9375 10 5.9375H12.5625C12.8386 5.9375 13.0625 6.16136 13.0625 6.4375V16.125C13.0625 16.4011 12.8386 16.625 12.5625 16.625H10C9.72386 16.625 9.5 16.4011 9.5 16.125V6.4375Z" fill="white"/>
<path d="M14.25 2.875C14.25 2.59886 14.4739 2.375 14.75 2.375H17.3125C17.5886 2.375 17.8125 2.59886 17.8125 2.875V16.125C17.8125 16.4011 17.5886 16.625 17.3125 16.625H14.75C14.4739 16.625 14.25 16.4011 14.25 16.125V2.875Z" fill="white"/>
</svg>
