<svg width="19" height="19" viewBox="0 0 19 19" fill="none" xmlns="http://www.w3.org/2000/svg">
<path d="M9.99403 0.264397C9.88391 0.0992163 9.69852 0 9.5 0C9.30148 0 9.11609 0.0992163 9.00597 0.264397L5.44347 5.60815C5.32201 5.79034 5.31068 6.0246 5.41401 6.21767C5.51733 6.41073 5.71853 6.53125 5.9375 6.53125H6.05373L3.65275 10.3728C3.53836 10.5558 3.5323 10.7865 3.63693 10.9753C3.74157 11.1641 3.94041 11.2812 4.15625 11.2812H4.38304L2.43768 15.172C2.34566 15.356 2.35549 15.5746 2.46368 15.7497C2.57186 15.9247 2.76297 16.0312 2.96875 16.0312H8.3125L8.3125 19H10.6875V16.0312H16.0313C16.237 16.0312 16.4281 15.9247 16.5363 15.7497C16.6445 15.5746 16.6543 15.356 16.5623 15.172L14.617 11.2812H14.8438C15.0596 11.2812 15.2584 11.1641 15.3631 10.9753C15.4677 10.7865 15.4616 10.5558 15.3472 10.3728L12.9463 6.53125H13.0625C13.2815 6.53125 13.4827 6.41073 13.586 6.21767C13.6893 6.0246 13.678 5.79034 13.5565 5.60815L9.99403 0.264397ZM7.64432 5.64967C7.53969 5.46088 7.34084 5.34375 7.125 5.34375H7.04693L9.5 1.66415L11.9531 5.34375H11.875C11.6592 5.34375 11.4603 5.46088 11.3557 5.64967C11.251 5.83845 11.2571 6.06915 11.3715 6.25219L13.7725 10.0938H13.6563C13.4505 10.0938 13.2594 10.2003 13.1512 10.3753C13.043 10.5504 13.0332 10.769 13.1252 10.953L15.0705 14.8438H3.92946L5.87482 10.953C5.96684 10.769 5.95701 10.5504 5.84882 10.3753C5.74064 10.2003 5.54953 10.0938 5.34375 10.0938H5.22752L7.6285 6.25219C7.7429 6.06915 7.74895 5.83845 7.64432 5.64967Z" fill="white"/>
</svg>
