<svg width="19" height="19" viewBox="0 0 19 19" fill="none" xmlns="http://www.w3.org/2000/svg">
<path d="M1.1875 0L0 1.1875L2.61355 4.84647C2.83646 5.15854 3.19635 5.34375 3.57986 5.34375H3.66437C3.97932 5.34375 4.28136 5.46886 4.50406 5.69156L7.68062 8.86812L4.57305 12.0204C4.25268 11.9258 3.91352 11.875 3.5625 11.875C1.59499 11.875 0 13.47 0 15.4375C0 17.405 1.59499 19 3.5625 19C5.53001 19 7.125 17.405 7.125 15.4375C7.125 15.0865 7.07423 14.7473 6.97964 14.427L10.1319 11.3194L11.2812 12.4688L10.9196 13.5537C10.7773 13.9805 10.8884 14.4509 11.2065 14.769L15.0897 18.6522C15.3216 18.8841 15.6255 19 15.9294 19C16.2333 19 16.5372 18.8841 16.7691 18.6522L18.6522 16.7691C18.8841 16.5372 19 16.2333 19 15.9294C19 15.6255 18.8841 15.3216 18.6522 15.0897L14.769 11.2065C14.4509 10.8884 13.9805 10.7773 13.5537 10.9196L12.4688 11.2812L11.3279 10.1404L14.5102 7.00312C14.8059 7.08261 15.1167 7.125 15.4375 7.125C17.405 7.125 19 5.53001 19 3.5625C19 3.24337 18.958 2.93405 18.8793 2.63974L16.3369 5.1822L14.25 4.74998L13.8178 2.66314L16.3603 0.120668C16.066 0.0419613 15.7566 0 15.4375 0C13.47 0 11.875 1.59499 11.875 3.5625C11.875 3.88327 11.9174 4.19414 11.9969 4.48981L8.85965 7.67215L5.69156 4.50406C5.46886 4.28136 5.34375 3.97932 5.34375 3.66437V3.57986C5.34375 3.19635 5.15854 2.83646 4.84647 2.61355L1.1875 0ZM12.6427 12.6427C12.8745 12.4108 13.2505 12.4108 13.4823 12.6427L16.943 16.1033C17.1748 16.3352 17.1748 16.7111 16.943 16.943C16.7111 17.1748 16.3352 17.1748 16.1033 16.943L12.6427 13.4823C12.4108 13.2505 12.4108 12.8745 12.6427 12.6427ZM3.5625 13.0625L4.12187 13.3499L4.75 13.3807L5.09073 13.9092L5.61931 14.25L5.65011 14.8781L5.9375 15.4375L5.65011 15.9969L5.61931 16.625L5.09073 16.9657L4.75 17.4943L4.12187 17.5251L3.5625 17.8125L3.00313 17.5251L2.375 17.4943L2.03427 16.9657L1.50569 16.625L1.47489 15.9969L1.1875 15.4375L1.47489 14.8781L1.50569 14.25L2.03427 13.9092L2.375 13.3807L3.00313 13.3499L3.5625 13.0625Z" fill="#141619"/>
</svg>
