<svg width="20" height="14" viewBox="0 0 20 14" fill="none" xmlns="http://www.w3.org/2000/svg">
<path d="M11.9809 0.086298C12.2322 0.235102 12.3495 0.540647 12.264 0.823527L10.8463 5.51512H13.3334C13.5827 5.51512 13.8082 5.66602 13.9071 5.89908C13.9803 6.07159 13.9738 6.26468 13.8961 6.42834C13.882 6.45815 13.8655 6.48699 13.8467 6.51455C13.8293 6.5401 13.8098 6.56455 13.7885 6.58766L7.12181 13.7998C6.92258 14.0153 6.60372 14.0625 6.35245 13.9137C6.10118 13.7649 5.98383 13.4594 6.06932 13.1765L7.48712 8.48485H5.00001C4.75067 8.48485 4.52518 8.33394 4.42628 8.10089C4.33626 7.88876 4.3668 7.64552 4.50187 7.46414C4.5152 7.44623 4.52956 7.42892 4.54492 7.41231L11.2116 0.200242C11.4108 -0.015282 11.7296 -0.062506 11.9809 0.086298Z" fill="white"/>
<path d="M2.5 1.90909H7.91538L6.73891 3.18181H2.5C1.80964 3.18181 1.25 3.75163 1.25 4.45453V9.54543C1.25 10.2483 1.80964 10.8182 2.5 10.8182H5.47418L5.08957 12.0909H2.5C1.11929 12.0909 0 10.9512 0 9.54543V4.45453C0 3.04872 1.11929 1.90909 2.5 1.90909Z" fill="white"/>
<path d="M2.5 4.45453H5.56244L3.63467 6.54003C3.12199 7.09465 2.98214 7.90648 3.27884 8.60565C3.45447 9.01954 3.76319 9.34706 4.14106 9.54543H2.5V4.45453Z" fill="white"/>
<path d="M13.2438 1.90909L12.8592 3.18181H15C15.6904 3.18181 16.25 3.75163 16.25 4.45453V9.54543C16.25 10.2483 15.6904 10.8182 15 10.8182H11.5945L10.418 12.0909H15C16.3807 12.0909 17.5 10.9512 17.5 9.54543V4.45453C17.5 3.04872 16.3807 1.90909 15 1.90909H13.2438Z" fill="white"/>
<path d="M15 9.54543H12.7709L14.6987 7.4599C14.8205 7.32823 14.9212 7.18206 15 7.02634V9.54543Z" fill="white"/>
<path d="M15 5.27675V4.45453H14.1924C14.5338 4.63374 14.8187 4.91832 15 5.27675Z" fill="white"/>
<path d="M20 6.99998C20 8.05434 19.1605 8.90907 18.125 8.90907V5.0909C19.1605 5.0909 20 5.94562 20 6.99998Z" fill="white"/>
</svg>
