<svg width="20" height="20" viewBox="0 0 20 20" fill="none" xmlns="http://www.w3.org/2000/svg">
<path d="M11.9809 3.0863C12.2322 3.2351 12.3495 3.54065 12.264 3.82353L10.8463 8.51512H13.3334C13.5827 8.51512 13.8082 8.66602 13.9071 8.89908C13.9803 9.07159 13.9738 9.26468 13.8961 9.42834C13.882 9.45815 13.8655 9.48699 13.8467 9.51455C13.8293 9.5401 13.8098 9.56455 13.7885 9.58766L7.12181 16.7998C6.92258 17.0153 6.60372 17.0625 6.35245 16.9137C6.10118 16.7649 5.98383 16.4594 6.06932 16.1765L7.48712 11.4848H5.00001C4.75067 11.4848 4.52518 11.3339 4.42628 11.1009C4.33626 10.8888 4.3668 10.6455 4.50187 10.4641C4.5152 10.4462 4.52956 10.4289 4.54492 10.4123L11.2116 3.20024C11.4108 2.98472 11.7296 2.93749 11.9809 3.0863Z" fill="#141619"/>
<path d="M2.5 4.90909H7.91538L6.73891 6.18181H2.5C1.80964 6.18181 1.25 6.75163 1.25 7.45453V12.5454C1.25 13.2483 1.80964 13.8182 2.5 13.8182H5.47418L5.08957 15.0909H2.5C1.11929 15.0909 0 13.9512 0 12.5454V7.45453C0 6.04872 1.11929 4.90909 2.5 4.90909Z" fill="#141619"/>
<path d="M2.5 7.45453H5.56244L3.63467 9.54003C3.12199 10.0947 2.98214 10.9065 3.27884 11.6057C3.45447 12.0195 3.76319 12.3471 4.14106 12.5454H2.5V7.45453Z" fill="#141619"/>
<path d="M13.2438 4.90909L12.8592 6.18181H15C15.6904 6.18181 16.25 6.75163 16.25 7.45453V12.5454C16.25 13.2483 15.6904 13.8182 15 13.8182H11.5945L10.418 15.0909H15C16.3807 15.0909 17.5 13.9512 17.5 12.5454V7.45453C17.5 6.04872 16.3807 4.90909 15 4.90909H13.2438Z" fill="#141619"/>
<path d="M15 12.5454H12.7709L14.6987 10.4599C14.8205 10.3282 14.9212 10.1821 15 10.0263V12.5454Z" fill="#141619"/>
<path d="M15 8.27675V7.45453H14.1924C14.5338 7.63374 14.8187 7.91832 15 8.27675Z" fill="#141619"/>
<path d="M20 9.99998C20 11.0543 19.1605 11.9091 18.125 11.9091V8.0909C19.1605 8.0909 20 8.94562 20 9.99998Z" fill="#141619"/>
</svg>
