<svg width="20" height="20" viewBox="0 0 20 20" fill="none" xmlns="http://www.w3.org/2000/svg">
<path d="M10.625 6.875C10.625 6.52982 10.3452 6.25 10 6.25C9.65482 6.25 9.375 6.52982 9.375 6.875V11.0769L7.58907 14.0534C7.41147 14.3494 7.50745 14.7333 7.80344 14.9109C8.09943 15.0885 8.48334 14.9925 8.66093 14.6966L10.5359 11.5716C10.5942 11.4744 10.625 11.3633 10.625 11.25V6.875Z" fill="white"/>
<path d="M8.125 0C7.77982 0 7.5 0.279822 7.5 0.625C7.5 0.970178 7.77982 1.25 8.125 1.25H8.75V2.58868C4.50936 3.19549 1.25 6.84184 1.25 11.25C1.25 14.0719 2.5862 16.5813 4.65818 18.1807L3.90579 18.9331C3.66171 19.1771 3.66171 19.5729 3.90579 19.8169C4.14986 20.061 4.54559 20.061 4.78967 19.8169L5.72203 18.8846C6.98727 19.595 8.4471 20 10 20C11.5529 20 13.0127 19.595 14.278 18.8846L15.2103 19.8169C15.4544 20.061 15.8501 20.061 16.0942 19.8169C16.3383 19.5729 16.3383 19.1771 16.0942 18.9331L15.3418 18.1807C17.4138 16.5813 18.75 14.0719 18.75 11.25C18.75 6.84184 15.4906 3.19549 11.25 2.58868V1.25H11.875C12.2202 1.25 12.5 0.970178 12.5 0.625C12.5 0.279822 12.2202 0 11.875 0H8.125ZM9.42241 3.77188C9.61293 3.75739 9.80554 3.75 10 3.75C10.1945 3.75 10.3871 3.75739 10.5776 3.77188C14.4495 4.06642 17.5 7.30227 17.5 11.25C17.5 13.9046 16.1213 16.2376 14.038 17.5714C12.8727 18.3174 11.4878 18.75 10 18.75C8.51217 18.75 7.12728 18.3174 5.96199 17.5714C3.87866 16.2376 2.5 13.9046 2.5 11.25C2.5 7.30227 5.55048 4.06642 9.42241 3.77188Z" fill="white"/>
<path d="M0 4.375C0 5.31668 0.416521 6.16109 1.07538 6.73402C2.03738 4.83665 3.58665 3.28738 5.48402 2.32538C4.91109 1.66652 4.06668 1.25 3.125 1.25C1.39911 1.25 0 2.64911 0 4.375Z" fill="white"/>
<path d="M16.875 1.25C15.9333 1.25 15.0889 1.66652 14.516 2.32538C16.4133 3.28738 17.9626 4.83665 18.9246 6.73402C19.5835 6.16109 20 5.31668 20 4.375C20 2.64911 18.6009 1.25 16.875 1.25Z" fill="white"/>
</svg>
